<svg xmlns="http://www.w3.org/2000/svg" version="1.1" xmlns:xlink="http://www.w3.org/1999/xlink" xmlns:svgjs="http://svgjs.dev/svgjs" width="2000" height="2470" viewBox="0 0 2000 2470"><g transform="matrix(1,0,0,1,-1.449605838946809,1.0018466197977887)"><svg viewBox="0 0 200 247" data-background-color="#ffffff" preserveAspectRatio="xMidYMid meet" height="2470" width="2000" xmlns="http://www.w3.org/2000/svg" xmlns:xlink="http://www.w3.org/1999/xlink"><g id="tight-bounds" transform="matrix(1,0,0,1,0.14505867536456662,-0.09997365579206985)"><svg viewBox="0 0 199.70998074074075 247.2" height="247.2" width="199.70998074074075"><g><svg viewBox="0 0 199.70998074074075 247.2" height="247.2" width="199.70998074074075"><g><svg viewBox="0 0 199.70998074074075 247.2" height="247.2" width="199.70998074074075"><g id="textblocktransform"><svg viewBox="0 0 199.70998074074075 247.2" height="247.2" width="199.70998074074075" id="textblock"><g><svg viewBox="0 0 199.70998074074075 247.2" height="247.2" width="199.70998074074075"><path d="M199.242 53.02C198.304 27.36 195.628 20.227 195.628 20.227 187.413-6.202 177.16-0.506 167.95 3.292 151.688 3.446 135.493 9.091 119.269 12.119 85.216 12.581 50.871 4.986 16.987 23.717 13.804 29.464-3.302 24.846 0.566 56.304 1.58 69.39 5.279 83.913 5.167 95.922 5.674 98.026 6.378 93.202 6.678 96.23 7.73 104.39 9.448 100.541 10.856 105.365 8.894 118.246 10.302 128.971 11.645 140.21 9.279 143.135 6.246 141.749 4.885 151.449 4.744 158.479 3.984 157.145 3.148 156.837 2.538 156.632 1.308 157.402 1.514 159.608 2.219 167.152-0.805 171.514 1.092 178.904-0.213 186.91 1.993 193.838 1.693 202.511 1.655 204.255 1.862 205.744 2.19 206.154 3.646 208.361 1.524 212.672 1.749 217.342 16.677 249.262 32.873 227.195 48.167 241.872 52.139 231.608 49.153 245.516 50.74 243.36 51.979 240.846 52.881 251.263 54.279 245.362 54.495 243.668 54.167 239.665 54.937 240.435 55.34 240.846 55.697 240.743 55.753 238.382 55.838 234.841 55.096 237.048 54.899 235.201 57.03 225.861 56.505 248.081 58.504 247.158 58.411 244.438 57.828 240.538 59.021 241.051 60.204 237.151 60.241 233.918 61.293 242.693 61.33 244.592 61.518 245.926 61.819 246.85 65.105 237.305 68.372 250.237 71.818 245.926 73.93 241.205 75.958 248.492 78.099 246.696 78.85 245.259 79.61 242.693 80.333 247.004 89.187 247.928 98.623 244.079 107.016 247.158 129.446 241.41 153.416 249.518 177.066 241.923 182.643 238.998 188.436 234.841 193.872 231.506 193.872 231.506 198.275 222.371 198.275 181.316S199.214 145.393 199.355 112.703C199.496 80.013 200.153 78.679 199.214 53.02Z" opacity="1" fill="#6cacff" data-fill-palette-color="tertiary"></path><g transform="matrix(1,0,0,1,55.76832,26.230666666666668)"><svg width="88.17334074074074" viewBox="1.35 -35.5 16.299999999999997 36" height="194.73866666666666" data-palette-color="#ffffff"><path d="M10.75 0.5L10.75 0.5Q8.15 0.5 6.35-0.25 4.55-1 3.43-2.85 2.3-4.7 1.83-8.05 1.35-11.4 1.35-16.55L1.35-16.55Q1.35-22.5 2.1-26.23 2.85-29.95 4.23-31.98 5.6-34 7.63-34.75 9.65-35.5 12.15-35.5L12.15-35.5Q14.7-35.5 16.13-34.7 17.55-33.9 17.55-32.8L17.55-32.8Q17.55-32.05 17.35-31.28 17.15-30.5 16.95-29.9L16.95-29.9Q16.3-30.4 15.28-30.7 14.25-31 13.1-31L13.1-31Q11.2-31 9.88-30.28 8.55-29.55 7.75-27.95 6.95-26.35 6.6-23.63 6.25-20.9 6.25-16.9L6.25-16.9Q6.25-12.7 6.53-10.13 6.8-7.55 7.38-6.23 7.95-4.9 8.85-4.45 9.75-4 10.85-4L10.85-4Q11.65-4 12.15-4.17 12.65-4.35 12.95-4.58 13.25-4.8 13.35-4.95L13.35-4.95 13.35-16.95 10.15-16.95 10.15-19.9Q10.15-20.75 11.15-20.75L11.15-20.75 17.65-20.75 17.6-1.5Q17-1.05 16-0.58 15-0.1 13.73 0.2 12.45 0.5 10.75 0.5Z" opacity="1" transform="matrix(1,0,0,1,0,0)" fill="#ffffff" class="wordmark-text-0" data-fill-palette-color="quaternary" id="text-0"></path></svg></g></svg></g></svg></g></svg></g><g></g></svg></g><defs></defs></svg><rect width="199.70998074074075" height="247.2" fill="none" stroke="none" visibility="hidden"></rect></g></svg></g></svg>